<?xml version="1.0" encoding="UTF-8"?>
<svg version="1.1" xmlns="http://www.w3.org/2000/svg" width="512" height="512">
<path d="M0 0 C3.37686969 0.02144973 6.75161245 0.0000984 10.12841797 -0.02539062 C25.30581911 -0.04629278 39.56258216 0.89211727 53.19482422 8.27148438 C53.85232666 8.6151001 54.5098291 8.95871582 55.18725586 9.31274414 C75.35459513 20.12397436 88.4445117 36.49984474 96.06982422 57.84570312 C99.88979274 70.53914019 99.27343247 83.38024697 98.88232422 96.52148438 C99.6716333 96.81949951 100.46094238 97.11751465 101.27416992 97.42456055 C104.0188125 98.5788879 105.19581262 99.56808831 107.06982422 101.83398438 C107.55837891 102.40761719 108.04693359 102.98125 108.55029297 103.57226562 C112.76453639 109.73914969 112.24934364 116.13949239 112.25732422 123.33398438 C112.28181641 124.48447266 112.30630859 125.63496094 112.33154297 126.8203125 C112.35583343 133.88478967 111.69802913 138.52841625 107.88232422 144.52148438 C107.22232422 145.18148437 106.56232422 145.84148437 105.88232422 146.52148438 C105.5618367 148.52016378 105.5618367 148.52016378 105.57373047 150.81054688 C105.54859375 151.67035156 105.52345703 152.53015625 105.49755859 153.41601562 C105.46285622 155.21282727 105.43151461 157.00970749 105.40380859 158.80664062 C105.18677146 165.9318108 104.26979004 171.76671612 99.44482422 177.33398438 C94.03772633 181.94979964 91.21022334 183.56088729 83.92919922 183.40405273 C76.6223492 183.24612576 76.6223492 183.24612576 70.52294922 186.68164062 C68.83502542 189.45134085 68.83502542 189.45134085 67.43701172 192.44726562 C64.6720619 197.91464127 60.1912612 202.2125474 55.88232422 206.52148438 C55.72577395 208.0078743 55.63165479 209.50097565 55.56591797 210.99414062 C55.52402344 211.89326172 55.48212891 212.79238281 55.43896484 213.71875 C55.39964844 214.66427734 55.36033203 215.60980469 55.31982422 216.58398438 C55.25504883 218.00807617 55.25504883 218.00807617 55.18896484 219.4609375 C55.08253146 221.81429791 54.98051413 224.16776792 54.88232422 226.52148438 C55.91450073 226.4979187 55.91450073 226.4979187 56.9675293 226.47387695 C76.90173454 226.08079877 94.57093046 226.95094567 113.24560547 234.21679688 C119.34797568 236.40604677 123.33043682 236.70056973 129.63232422 235.14648438 C135.41589266 233.82020009 140.95816965 232.8250513 146.88232422 232.52148438 C148.25130859 232.44220703 148.25130859 232.44220703 149.64794922 232.36132812 C181.77246082 231.41406689 210.08353971 243.48619005 233.44482422 265.08789062 C255.03671546 286.64517947 266.80766434 315.34071778 267.19482422 345.77148438 C267.01047775 378.00262064 253.97792942 406.38104765 231.36230469 429.10302734 C210.55016266 449.0499995 182.66480387 458.95795271 154.13232422 458.83398438 C153.46868866 458.83216156 152.8050531 458.83033875 152.12130737 458.82846069 C142.32397886 458.78311842 133.30990991 458.3509056 123.88232422 455.52148438 C122.68736328 455.19277344 121.49240234 454.8640625 120.26123047 454.52539062 C105.67315321 450.13834138 86.69377405 442.00922108 77.31062317 429.41130161 C73.56923175 426.49957363 70.00823218 426.97304192 65.39282227 427.02268982 C64.42034137 427.01730527 63.44786047 427.01192071 62.44591045 427.00637299 C59.17836703 426.99306943 55.91157042 427.00826672 52.64404297 427.02319336 C50.30514174 427.0193716 47.96624286 427.0137538 45.62734985 427.00646973 C40.58651022 426.99450183 35.5458788 426.99502188 30.5050354 427.00506401 C23.21250859 427.01927823 15.92014693 427.01009254 8.6276387 426.99354482 C-3.20967188 426.96708108 -15.0469388 426.95622501 -26.88427734 426.95727539 C-27.59273241 426.95733371 -28.30118748 426.95739204 -29.03111088 426.95745213 C-31.90176351 426.95771798 -34.77241612 426.95803527 -37.64306873 426.95841539 C-45.54573782 426.95938171 -53.44840558 426.95805372 -61.35107422 426.95532227 C-62.41246288 426.95496243 -62.41246288 426.95496243 -63.49529374 426.95459532 C-75.28827059 426.95019067 -87.08120687 426.9339654 -98.87415981 426.91010147 C-106.79777503 426.89476533 -114.72123074 426.89546418 -122.64485168 426.9075793 C-127.56822108 426.91227796 -132.49151748 426.90478954 -137.41487503 426.89403534 C-139.70303016 426.89162172 -141.99119732 426.89439072 -144.27933884 426.9026432 C-147.39581135 426.91321353 -150.51172 426.90555165 -153.62817383 426.89329529 C-154.53983968 426.90087134 -155.45150553 426.9084474 -156.39079762 426.91625303 C-159.94747372 426.88646405 -162.45711054 426.84543543 -165.67944431 425.26515484 C-167.46354238 423.10216566 -167.61811066 422.03756458 -167.61888123 419.25094604 C-167.62871536 418.37948944 -167.6385495 417.50803284 -167.64868164 416.61016846 C-167.63901367 415.65648376 -167.6293457 414.70279907 -167.61938477 413.72021484 C-167.62478775 412.71320526 -167.63019073 411.70619568 -167.63575745 410.66867065 C-167.64830431 407.32504218 -167.63169733 403.98226581 -167.61376953 400.63867188 C-167.61392455 398.30713862 -167.61541399 395.97560511 -167.61817932 393.64407349 C-167.61956655 388.74290653 -167.60696412 383.84203098 -167.58422852 378.94091797 C-167.556063 372.70190383 -167.55851686 366.46338209 -167.57131863 360.22433281 C-167.57833097 355.39913852 -167.57042 350.57405482 -167.5580616 345.74887466 C-167.55358521 343.45190991 -167.55317645 341.1549331 -167.557127 338.85796738 C-167.58506933 308.27067446 -161.58746566 281.94705831 -141.11767578 258.52148438 C-140.46154297 257.76351563 -139.80541016 257.00554687 -139.12939453 256.22460938 C-122.77123437 238.71051926 -97.97023075 227.65006404 -74.11767578 226.52148438 C-65.45124005 226.32394744 -56.78466733 226.39346382 -48.11767578 226.52148438 C-47.39002979 214.40146247 -47.39002979 214.40146247 -51.12939453 203.23632812 C-52.84311713 201.49636169 -54.60555255 199.8031868 -56.41064453 198.15820312 C-67.37236574 187.48120194 -71.77809733 171.14384972 -74.11767578 156.52148438 C-74.11767578 155.53148437 -74.11767578 154.54148438 -74.11767578 153.52148438 C-75.03548828 153.56789062 -75.95330078 153.61429688 -76.89892578 153.66210938 C-85.39881146 153.91210601 -91.39179283 153.79316347 -97.82470703 147.97851562 C-104.57241937 140.80394071 -105.62660586 133.07119747 -105.55517578 123.58398438 C-105.58514648 122.17729492 -105.58514648 122.17729492 -105.61572266 120.7421875 C-105.61020263 112.79887426 -103.80473947 106.67878421 -98.61767578 100.58398438 C-96.45591828 98.80053443 -94.62012342 97.70378485 -92.11767578 96.52148438 C-92.14909668 95.51903687 -92.14909668 95.51903687 -92.18115234 94.49633789 C-92.9485604 66.1872376 -87.77955595 44.14635014 -67.99267578 22.89648438 C-49.00978325 4.63363259 -25.47666255 -0.19230461 0 0 Z M-61.74511719 33.03466797 C-68.48857574 40.33948166 -73.73804245 48.16536711 -77.11767578 57.52148438 C-77.50955078 58.60558594 -77.90142578 59.6896875 -78.30517578 60.80664062 C-81.71648691 71.69203966 -81.54228061 82.21883038 -81.11767578 93.52148438 C-74.70047103 94.14142819 -74.70047103 94.14142819 -68.89111328 92.05273438 C-68.42962891 91.38242188 -67.96814453 90.71210937 -67.49267578 90.02148438 C-66.93708984 89.29058594 -66.38150391 88.5596875 -65.80908203 87.80664062 C-64.97183594 86.67548828 -64.97183594 86.67548828 -64.11767578 85.52148438 C-56.66966442 76.90004452 -47.11291841 70.40062753 -35.83642578 68.04492188 C-29.46397038 67.61859563 -25.60566137 69.66481479 -20.25830078 72.96777344 C-4.34076719 82.61652942 13.83519119 88.39091061 31.88232422 92.52148438 C33.01025391 92.78703125 34.13818359 93.05257812 35.30029297 93.32617188 C52.58137995 96.659116 71.42355721 94.60300092 88.88232422 93.52148438 C89.74653375 71.29209486 85.21735742 51.34753011 70.15966797 34.39648438 C56.546957 19.7284008 38.92445499 11.48070798 18.88232422 10.52148438 C-10.91513661 9.58814316 -39.70243898 10.21909421 -61.74511719 33.03466797 Z M-54.76611328 91.08007812 C-55.54212891 91.88574219 -56.31814453 92.69140625 -57.11767578 93.52148438 C-57.6181543 93.96448883 -58.11863281 94.40749329 -58.63427734 94.86392212 C-63.2074627 99.33804644 -63.82544589 103.00745081 -63.90005493 109.28977966 C-63.88163544 110.40651566 -63.86321594 111.52325165 -63.84423828 112.67382812 C-63.84523529 113.84675919 -63.8462323 115.01969025 -63.84725952 116.22816467 C-63.84258779 118.7085752 -63.82318769 121.18899604 -63.79003906 123.66918945 C-63.74321589 127.4157672 -63.74887764 131.15945733 -63.76220703 134.90625 C-63.7070183 158.50902427 -60.14045819 178.82453236 -43.11767578 196.52148438 C-29.52806349 209.55829887 -11.81008066 215.81585296 6.88232422 215.52148438 C24.57877507 213.96202702 40.27620893 206.58502574 52.81201172 194.02539062 C55.50147737 190.77265953 57.64540939 187.10054809 59.88232422 183.52148438 C52.62232422 183.52148438 45.36232422 183.52148438 37.88232422 183.52148438 C36.89232422 186.16148437 35.90232422 188.80148438 34.88232422 191.52148438 C31.35439446 196.05739406 27.38021869 198.14360556 21.88232422 199.52148438 C17.70738529 199.94036624 13.57510709 199.94114123 9.38232422 199.89648438 C8.29306641 199.90808594 7.20380859 199.9196875 6.08154297 199.93164062 C-1.63777763 199.90363825 -7.66480396 199.20705135 -13.93017578 194.33398438 C-18.85874816 187.99724846 -20.03715372 181.44410938 -19.11767578 173.52148438 C-17.86259977 167.94661186 -15.70129387 164.08652067 -11.11767578 160.52148438 C-4.2479231 157.25657314 1.8477823 157.06623482 9.38232422 157.14648438 C10.47158203 157.13488281 11.56083984 157.12328125 12.68310547 157.11132812 C20.40242607 157.1393305 26.42945239 157.8359174 32.69482422 162.70898438 C34.88232422 165.52148438 34.88232422 165.52148438 37.88232422 173.52148438 C46.79232422 173.52148438 55.70232422 173.52148438 64.88232422 173.52148438 C69.5652646 164.15560361 70.17393865 156.43097515 70.07763672 146.04882812 C70.07480682 144.88517227 70.07197693 143.72151642 70.06906128 142.52259827 C70.05793653 138.83461888 70.03284605 135.14688939 70.00732422 131.45898438 C69.99728447 128.94661811 69.98816036 126.43424801 69.97998047 123.921875 C69.95802245 117.78832733 69.92462215 111.65492371 69.88232422 105.52148438 C68.67286133 105.49267685 68.67286133 105.49267685 67.43896484 105.46328735 C33.07470818 104.62409612 1.2290619 98.38072853 -28.40283203 79.95507812 C-37.52667868 75.13716198 -48.40030097 85.14084087 -54.76611328 91.08007812 Z M-89.11767578 107.52148438 C-93.81778346 112.87438479 -94.32343169 116.28091859 -94.36767578 123.27148438 C-94.38830078 124.07070312 -94.40892578 124.86992187 -94.43017578 125.69335938 C-94.46326788 130.72335863 -93.93849451 134.18125508 -91.11767578 138.52148438 C-84.99740497 143.3395699 -81.95241951 143.52148438 -74.11767578 143.52148438 C-74.11767578 130.65148437 -74.11767578 117.78148437 -74.11767578 104.52148438 C-82.9069497 103.87233277 -82.9069497 103.87233277 -89.11767578 107.52148438 Z M80.88232422 104.52148438 C80.88232422 117.39148438 80.88232422 130.26148438 80.88232422 143.52148438 C89.24859163 143.76714266 89.24859163 143.76714266 96.50854492 140.22119141 C100.60871057 135.90978357 101.61347703 132.65223082 101.60498047 126.734375 C101.57275391 125.81849609 101.54052734 124.90261719 101.50732422 123.95898438 C101.51376953 123.03923828 101.52021484 122.11949219 101.52685547 121.171875 C101.43453616 115.33477702 100.67641032 111.99637845 96.88232422 107.52148438 C91.82410234 102.92310085 88.61104456 104.52148438 80.88232422 104.52148438 Z M80.88232422 153.52148438 C80.67736328 154.63007813 80.47240234 155.73867187 80.26123047 156.88085938 C79.98915959 158.34441304 79.7170206 159.80795405 79.44482422 161.27148438 C79.31011719 162.00109375 79.17541016 162.73070312 79.03662109 163.48242188 C78.40773155 166.85695113 77.73910249 170.19783132 76.88232422 173.52148438 C84.45027338 173.47371832 84.45027338 173.47371832 91.00732422 170.14648438 C93.78050887 166.26402586 93.99954746 163.48545985 93.94482422 158.83398438 C93.92419922 157.08085937 93.90357422 155.32773438 93.88232422 153.52148438 C89.59232422 153.52148438 85.30232422 153.52148438 80.88232422 153.52148438 Z M-7.11767578 170.52148438 C-9.61040141 174.37387853 -9.27412171 178.0460446 -8.66845703 182.43164062 C-7.89660112 185.36031376 -6.53736584 186.76170979 -4.11767578 188.52148438 C-0.15083347 190.50490553 4.8332616 189.75022143 9.19482422 189.77148438 C10.76393555 189.80242187 10.76393555 189.80242187 12.36474609 189.83398438 C13.37730469 189.83914062 14.38986328 189.84429687 15.43310547 189.84960938 C16.35776611 189.85895508 17.28242676 189.86830078 18.23510742 189.87792969 C22.02093133 189.36817197 24.8378392 187.86439368 27.19482422 184.83398438 C28.5905841 180.1391557 28.55831052 176.07625286 26.63232422 171.64648438 C24.21750044 168.71419836 22.1821072 167.66508212 18.39624023 167.24682617 C15.4120133 167.21858095 12.42920397 167.19974481 9.44482422 167.20898438 C8.40777344 167.19287109 7.37072266 167.17675781 6.30224609 167.16015625 C-0.94203995 167.0550251 -0.94203995 167.0550251 -7.11767578 170.52148438 Z M-37.11767578 215.52148438 C-38.81169114 228.83058392 -34.91124102 235.76232208 -27.24267578 246.27148438 C-26.24220515 247.69599052 -25.24533947 249.12303481 -24.25195312 250.55249023 C-22.22597254 253.46103318 -20.18408335 256.35728014 -18.12939453 259.24560547 C-13.93010813 265.17344552 -9.92855422 271.2308255 -5.92669678 277.29284668 C-4.05373966 280.12617827 -2.16724006 282.95039256 -0.28173828 285.77539062 C1.30029297 288.1484375 1.30029297 288.1484375 2.88232422 290.52148438 C7.67505757 286.184268 10.96653421 281.1640413 14.46826172 275.75976562 C15.08827057 274.81393112 15.70827942 273.86809662 16.34707642 272.89360046 C18.32282969 269.8773927 20.2904025 266.85595712 22.25732422 263.83398438 C24.21862767 260.83088951 26.18165114 257.82893299 28.14614868 254.82792664 C29.36496094 252.9649527 30.58171652 251.10063089 31.79598999 249.23469543 C35.23218526 243.97000884 38.78000099 238.83049248 42.52519226 233.77961731 C44.69045345 230.17683751 44.67284842 226.98535809 44.31982422 222.89648438 C44.27245117 221.81947266 44.27245117 221.81947266 44.22412109 220.72070312 C44.14315789 218.9857774 44.01766732 217.2530168 43.88232422 215.52148438 C39.83227666 216.81749959 35.96198429 218.31247701 32.06982422 220.02148438 C12.07119874 228.34404578 -9.26489012 226.34650048 -29.11767578 218.52148438 C-30.20951172 217.97363281 -31.30134766 217.42578125 -32.42626953 216.86132812 C-34.91499961 215.37293312 -34.91499961 215.37293312 -37.11767578 215.52148438 Z M-75.53662109 237.69433594 C-99.80561715 239.48807965 -121.41905706 252.69083591 -137.05908203 270.79882812 C-168.172797 311.94922535 -156.11767578 367.79935194 -156.11767578 415.52148438 C-83.51767578 415.52148438 -10.91767578 415.52148438 63.88232422 415.52148438 C60.9530239 410.39130276 60.9530239 410.39130276 57.95263672 405.30273438 C42.40978495 379.08587596 36.96834751 348.91702691 44.04321289 318.87060547 C51.11710178 292.00478308 67.73854797 266.05246082 91.88232422 251.52148438 C95.11044964 249.65378324 98.34152758 247.80023517 101.60888672 246.00195312 C102.73423828 245.26912109 102.73423828 245.26912109 103.88232422 244.52148438 C103.88232422 243.86148438 103.88232422 243.20148438 103.88232422 242.52148438 C101.55073118 241.86875976 99.21734626 241.22423235 96.88232422 240.58398438 C96.23392578 240.40158203 95.58552734 240.21917969 94.91748047 240.03125 C85.70679989 237.52339143 76.38923255 237.08970725 66.88232422 236.77148438 C65.64998047 236.68382812 64.41763672 236.59617187 63.14794922 236.50585938 C56.47827036 236.29065811 56.47827036 236.29065811 50.73583984 239.25219727 C48.99519658 241.58774688 47.50220339 243.98014825 46.06494141 246.51190186 C44.14641844 249.77198487 42.00666326 252.88165751 39.89916992 256.02163696 C36.69092825 260.81037232 33.54257831 265.63850646 30.38232422 270.45898438 C29.08961033 272.42725075 27.79664334 274.3953509 26.50341797 276.36328125 C25.87483887 277.32054108 25.24625977 278.2778009 24.59863281 279.2640686 C23.36194065 281.14448161 22.12272938 283.02324058 20.88085938 284.90023804 C18.33974522 288.7453151 15.81609273 292.58736426 13.44091797 296.53759766 C12.77189453 297.62669434 12.10287109 298.71579102 11.41357422 299.83789062 C10.883125 300.74095947 10.35267578 301.64402832 9.80615234 302.57446289 C7.08674135 305.32665866 4.64452675 305.28368584 0.88232422 305.52148438 C-7.14706424 294.94080467 -14.28399922 283.75245326 -21.55517578 272.64648438 C-22.83939389 270.6866608 -24.12389718 268.72702406 -25.40869141 266.76757812 C-26.03428452 265.81276047 -26.65987762 264.85794281 -27.3044281 263.87419128 C-28.54299385 261.99177288 -29.78743334 260.11320486 -31.03797913 258.23872375 C-33.65945888 254.30733718 -36.23246646 250.39489332 -38.55102539 246.27612305 C-42.12281224 240.0106715 -42.12281224 240.0106715 -48.20288086 236.50292969 C-51.83522514 236.1623408 -55.1711136 236.27756161 -58.80517578 236.58398438 C-60.05451904 236.64110596 -61.3038623 236.69822754 -62.59106445 236.75708008 C-66.91548381 236.9816482 -71.21848786 237.38577333 -75.53662109 237.69433594 Z M77.25341797 277.34570312 C56.66080007 301.77112639 49.44479476 329.3476716 52.08447266 360.94091797 C54.58911786 380.88829045 64.55828702 399.77146326 77.88232422 414.52148438 C78.65318359 415.37484375 79.42404297 416.22820312 80.21826172 417.10742188 C95.97290943 433.67784422 119.6489817 446.27537723 142.75634766 447.69848633 C172.62089258 448.31150569 196.36780627 442.8308513 219.88232422 423.52148438 C220.52685547 423.02390625 221.17138672 422.52632812 221.83544922 422.01367188 C240.96613531 406.53803556 253.07223763 381.04162998 255.67529297 356.84179688 C257.52948608 327.10473762 249.22164286 299.97238362 229.56982422 277.45898438 C211.97282312 258.49695452 187.27771905 244.56684655 160.88232422 243.52148438 C159.81240234 243.46992188 158.74248047 243.41835938 157.64013672 243.36523438 C126.81067802 242.58309166 98.24450037 254.79510494 77.25341797 277.34570312 Z " fill="#787878" transform="translate(206.11767578125,26.478515625)"/>
<path d="M0 0 C3.37686969 0.02144973 6.75161245 0.0000984 10.12841797 -0.02539062 C25.30581911 -0.04629278 39.56258216 0.89211727 53.19482422 8.27148438 C53.85232666 8.6151001 54.5098291 8.95871582 55.18725586 9.31274414 C75.35459513 20.12397436 88.4445117 36.49984474 96.06982422 57.84570312 C99.88979274 70.53914019 99.27343247 83.38024697 98.88232422 96.52148438 C99.6716333 96.81949951 100.46094238 97.11751465 101.27416992 97.42456055 C104.0188125 98.5788879 105.19581262 99.56808831 107.06982422 101.83398438 C107.55837891 102.40761719 108.04693359 102.98125 108.55029297 103.57226562 C112.76453639 109.73914969 112.24934364 116.13949239 112.25732422 123.33398438 C112.28181641 124.48447266 112.30630859 125.63496094 112.33154297 126.8203125 C112.35583343 133.88478967 111.69802913 138.52841625 107.88232422 144.52148438 C107.22232422 145.18148437 106.56232422 145.84148437 105.88232422 146.52148438 C105.5618367 148.52016378 105.5618367 148.52016378 105.57373047 150.81054688 C105.54859375 151.67035156 105.52345703 152.53015625 105.49755859 153.41601562 C105.46285622 155.21282727 105.43151461 157.00970749 105.40380859 158.80664062 C105.18677146 165.9318108 104.26979004 171.76671612 99.44482422 177.33398438 C94.03772633 181.94979964 91.21022334 183.56088729 83.92919922 183.40405273 C76.6223492 183.24612576 76.6223492 183.24612576 70.52294922 186.68164062 C68.83464547 189.45983302 68.83464547 189.45983302 67.39404297 192.47851562 C59.71130651 207.9432487 41.46862491 217.97468325 25.75732422 223.65039062 C5.70586688 229.289863 -15.14736628 226.20051364 -33.80517578 217.45898438 C-36.83518495 215.68671486 -38.78497401 214.09550012 -41.11767578 211.52148438 C-43.4985368 209.50690967 -45.74004123 207.72843311 -48.47705078 206.22851562 C-61.1073333 198.06367323 -68.82734639 180.77181274 -72.44189453 166.77539062 C-73.35659384 162.37108702 -73.91066813 158.01355047 -74.11767578 153.52148438 C-75.03548828 153.56789062 -75.95330078 153.61429688 -76.89892578 153.66210938 C-85.39881146 153.91210601 -91.39179283 153.79316347 -97.82470703 147.97851562 C-104.57241937 140.80394071 -105.62660586 133.07119747 -105.55517578 123.58398438 C-105.58514648 122.17729492 -105.58514648 122.17729492 -105.61572266 120.7421875 C-105.61020263 112.79887426 -103.80473947 106.67878421 -98.61767578 100.58398438 C-96.45591828 98.80053443 -94.62012342 97.70378485 -92.11767578 96.52148438 C-92.13862305 95.85318604 -92.15957031 95.1848877 -92.18115234 94.49633789 C-92.9485604 66.1872376 -87.77955595 44.14635014 -67.99267578 22.89648438 C-49.00978325 4.63363259 -25.47666255 -0.19230461 0 0 Z M-61.74511719 33.03466797 C-68.48857574 40.33948166 -73.73804245 48.16536711 -77.11767578 57.52148438 C-77.50955078 58.60558594 -77.90142578 59.6896875 -78.30517578 60.80664062 C-81.71648691 71.69203966 -81.54228061 82.21883038 -81.11767578 93.52148438 C-74.70047103 94.14142819 -74.70047103 94.14142819 -68.89111328 92.05273438 C-68.42962891 91.38242188 -67.96814453 90.71210937 -67.49267578 90.02148438 C-66.93708984 89.29058594 -66.38150391 88.5596875 -65.80908203 87.80664062 C-64.97183594 86.67548828 -64.97183594 86.67548828 -64.11767578 85.52148438 C-56.66966442 76.90004452 -47.11291841 70.40062753 -35.83642578 68.04492188 C-29.46397038 67.61859563 -25.60566137 69.66481479 -20.25830078 72.96777344 C-4.34076719 82.61652942 13.83519119 88.39091061 31.88232422 92.52148438 C33.01025391 92.78703125 34.13818359 93.05257812 35.30029297 93.32617188 C52.58137995 96.659116 71.42355721 94.60300092 88.88232422 93.52148438 C89.74653375 71.29209486 85.21735742 51.34753011 70.15966797 34.39648438 C56.546957 19.7284008 38.92445499 11.48070798 18.88232422 10.52148438 C-10.91513661 9.58814316 -39.70243898 10.21909421 -61.74511719 33.03466797 Z M-54.76611328 91.08007812 C-55.54212891 91.88574219 -56.31814453 92.69140625 -57.11767578 93.52148438 C-57.6181543 93.96448883 -58.11863281 94.40749329 -58.63427734 94.86392212 C-63.2074627 99.33804644 -63.82544589 103.00745081 -63.90005493 109.28977966 C-63.88163544 110.40651566 -63.86321594 111.52325165 -63.84423828 112.67382812 C-63.84523529 113.84675919 -63.8462323 115.01969025 -63.84725952 116.22816467 C-63.84258779 118.7085752 -63.82318769 121.18899604 -63.79003906 123.66918945 C-63.74321589 127.4157672 -63.74887764 131.15945733 -63.76220703 134.90625 C-63.7070183 158.50902427 -60.14045819 178.82453236 -43.11767578 196.52148438 C-29.52806349 209.55829887 -11.81008066 215.81585296 6.88232422 215.52148438 C24.57877507 213.96202702 40.27620893 206.58502574 52.81201172 194.02539062 C55.50147737 190.77265953 57.64540939 187.10054809 59.88232422 183.52148438 C52.62232422 183.52148438 45.36232422 183.52148438 37.88232422 183.52148438 C36.89232422 186.16148437 35.90232422 188.80148438 34.88232422 191.52148438 C31.35439446 196.05739406 27.38021869 198.14360556 21.88232422 199.52148438 C17.70738529 199.94036624 13.57510709 199.94114123 9.38232422 199.89648438 C8.29306641 199.90808594 7.20380859 199.9196875 6.08154297 199.93164062 C-1.63777763 199.90363825 -7.66480396 199.20705135 -13.93017578 194.33398438 C-18.85874816 187.99724846 -20.03715372 181.44410938 -19.11767578 173.52148438 C-17.86259977 167.94661186 -15.70129387 164.08652067 -11.11767578 160.52148438 C-4.2479231 157.25657314 1.8477823 157.06623482 9.38232422 157.14648438 C10.47158203 157.13488281 11.56083984 157.12328125 12.68310547 157.11132812 C20.40242607 157.1393305 26.42945239 157.8359174 32.69482422 162.70898438 C34.88232422 165.52148438 34.88232422 165.52148438 37.88232422 173.52148438 C46.79232422 173.52148438 55.70232422 173.52148438 64.88232422 173.52148438 C69.5652646 164.15560361 70.17393865 156.43097515 70.07763672 146.04882812 C70.07480682 144.88517227 70.07197693 143.72151642 70.06906128 142.52259827 C70.05793653 138.83461888 70.03284605 135.14688939 70.00732422 131.45898438 C69.99728447 128.94661811 69.98816036 126.43424801 69.97998047 123.921875 C69.95802245 117.78832733 69.92462215 111.65492371 69.88232422 105.52148438 C68.67286133 105.49267685 68.67286133 105.49267685 67.43896484 105.46328735 C33.07470818 104.62409612 1.2290619 98.38072853 -28.40283203 79.95507812 C-37.52667868 75.13716198 -48.40030097 85.14084087 -54.76611328 91.08007812 Z M-89.11767578 107.52148438 C-93.81778346 112.87438479 -94.32343169 116.28091859 -94.36767578 123.27148438 C-94.38830078 124.07070312 -94.40892578 124.86992187 -94.43017578 125.69335938 C-94.46326788 130.72335863 -93.93849451 134.18125508 -91.11767578 138.52148438 C-84.99740497 143.3395699 -81.95241951 143.52148438 -74.11767578 143.52148438 C-74.11767578 130.65148437 -74.11767578 117.78148437 -74.11767578 104.52148438 C-82.9069497 103.87233277 -82.9069497 103.87233277 -89.11767578 107.52148438 Z M80.88232422 104.52148438 C80.88232422 117.39148438 80.88232422 130.26148438 80.88232422 143.52148438 C89.24859163 143.76714266 89.24859163 143.76714266 96.50854492 140.22119141 C100.60871057 135.90978357 101.61347703 132.65223082 101.60498047 126.734375 C101.57275391 125.81849609 101.54052734 124.90261719 101.50732422 123.95898438 C101.51376953 123.03923828 101.52021484 122.11949219 101.52685547 121.171875 C101.43453616 115.33477702 100.67641032 111.99637845 96.88232422 107.52148438 C91.82410234 102.92310085 88.61104456 104.52148438 80.88232422 104.52148438 Z M80.88232422 153.52148438 C80.67736328 154.63007813 80.47240234 155.73867187 80.26123047 156.88085938 C79.98915959 158.34441304 79.7170206 159.80795405 79.44482422 161.27148438 C79.31011719 162.00109375 79.17541016 162.73070312 79.03662109 163.48242188 C78.40773155 166.85695113 77.73910249 170.19783132 76.88232422 173.52148438 C84.45027338 173.47371832 84.45027338 173.47371832 91.00732422 170.14648438 C93.78050887 166.26402586 93.99954746 163.48545985 93.94482422 158.83398438 C93.92419922 157.08085937 93.90357422 155.32773438 93.88232422 153.52148438 C89.59232422 153.52148438 85.30232422 153.52148438 80.88232422 153.52148438 Z M-7.11767578 170.52148438 C-9.61040141 174.37387853 -9.27412171 178.0460446 -8.66845703 182.43164062 C-7.89660112 185.36031376 -6.53736584 186.76170979 -4.11767578 188.52148438 C-0.15083347 190.50490553 4.8332616 189.75022143 9.19482422 189.77148438 C10.76393555 189.80242187 10.76393555 189.80242187 12.36474609 189.83398438 C13.37730469 189.83914062 14.38986328 189.84429687 15.43310547 189.84960938 C16.35776611 189.85895508 17.28242676 189.86830078 18.23510742 189.87792969 C22.02093133 189.36817197 24.8378392 187.86439368 27.19482422 184.83398438 C28.5905841 180.1391557 28.55831052 176.07625286 26.63232422 171.64648438 C24.21750044 168.71419836 22.1821072 167.66508212 18.39624023 167.24682617 C15.4120133 167.21858095 12.42920397 167.19974481 9.44482422 167.20898438 C8.40777344 167.19287109 7.37072266 167.17675781 6.30224609 167.16015625 C-0.94203995 167.0550251 -0.94203995 167.0550251 -7.11767578 170.52148438 Z " fill="#AEAEAE" transform="translate(206.11767578125,26.478515625)"/>
<path d="M0 0 C4.7446966 2.61090125 8.32109541 6.6850828 12.0534668 10.5456543 C12.89844727 11.38805664 13.74342773 12.23045898 14.61401367 13.09838867 C20.58023802 19.15939022 24.66775649 23.76144017 24.6784668 32.6081543 C24.53521137 38.32534834 23.71375951 42.62865278 20.2409668 47.2331543 C19.3334668 48.0375293 18.4259668 48.8419043 17.4909668 49.6706543 C14.68163165 52.87017488 14.50504559 54.61593622 14.76049805 58.7722168 C16.50560449 67.71056686 22.41475225 75.9069794 29.8425293 81.02612305 C36.42929315 85.02184003 41.36513902 87.68608885 49.2409668 86.2331543 C51.59889522 84.67749168 53.41322377 83.0060027 55.35424805 80.9597168 C59.27242702 77.37413687 63.38114472 76.90095906 68.5534668 76.7956543 C69.62209961 76.75569336 70.69073242 76.71573242 71.79174805 76.67456055 C80.28808071 78.05052382 86.20253377 84.67406484 92.0534668 90.5456543 C92.80305664 91.26688477 93.55264648 91.98811523 94.32495117 92.73120117 C99.8913962 98.27774827 103.11579331 103.18368185 103.6159668 111.2331543 C103.09923766 121.07014595 97.82506581 126.466462 91.2409668 133.2331543 C90.56420898 133.98338867 89.88745117 134.73362305 89.19018555 135.5065918 C83.43571495 141.7108106 76.58176113 145.7311257 68.00537109 146.41015625 C37.91184454 147.16588163 14.158922 136.03319277 -7.77856445 115.5065918 C-24.79916372 99.22444635 -37.98825276 80.34887934 -43.7590332 57.2331543 C-43.95110352 56.48807617 -44.14317383 55.74299805 -44.34106445 54.9753418 C-46.40125453 41.45895457 -45.93716434 27.52478714 -37.7590332 16.2331543 C-35.62436792 13.760075 -33.36979997 11.4288797 -31.0715332 9.1081543 C-30.49725586 8.50100586 -29.92297852 7.89385742 -29.33129883 7.26831055 C-21.04772826 -1.11572229 -11.26585798 -4.41785481 0 0 Z M-16.7590332 12.2331543 C-7.8490332 21.1431543 1.0609668 30.0531543 10.2409668 39.2331543 C11.2309668 38.5731543 12.2209668 37.9131543 13.2409668 37.2331543 C13.92977126 33.2380884 14.19702515 30.7652991 12.0222168 27.2800293 C10.18802048 25.15166942 8.25085547 23.19679774 6.2409668 21.2331543 C4.97833008 19.91831055 4.97833008 19.91831055 3.69018555 18.5769043 C-2.2512093 11.96574071 -2.2512093 11.96574071 -10.2590332 8.9206543 C-13.25000403 9.08457102 -13.25000403 9.08457102 -16.7590332 12.2331543 Z M-27.1965332 21.51831055 C-27.9699707 22.3980957 -27.9699707 22.3980957 -28.7590332 23.2956543 C-29.2746582 23.86413086 -29.7902832 24.43260742 -30.3215332 25.01831055 C-35.94010041 33.67517903 -34.8387647 47.50078983 -32.7590332 57.2956543 C-28.39674836 72.27557583 -19.44686701 86.67817621 -8.87231445 97.96362305 C-7.11154427 99.85457957 -5.49335488 101.77820493 -3.8840332 103.7956543 C0.21969953 108.61160511 5.26709745 112.36384544 10.2409668 116.2331543 C11.08530273 116.91635742 11.92963867 117.59956055 12.79956055 118.3034668 C27.21352918 129.49239222 46.38729746 137.86594826 64.90112305 135.83081055 C72.204106 134.53301442 76.71196211 133.2274252 81.2409668 127.2331543 C78.78470273 121.28407029 73.53655268 116.80591545 69.12304688 112.25024414 C67.99910557 111.07821026 66.88878059 109.89295559 65.79296875 108.69458008 C59.34637309 101.35394533 59.34637309 101.35394533 50.69921875 97.5090332 C47.29063347 97.4733542 47.29063347 97.4733542 44.12768555 97.91235352 C35.81339628 98.83631969 27.72519866 93.98287935 21.2409668 89.2331543 C12.30255736 81.95645816 4.89142259 71.94542492 3.2409668 60.2331543 C3.0123537 53.83198745 3.0123537 53.83198745 4.12109375 50.92773438 C4.54523227 47.92854135 4.54523227 47.92854135 1.81591797 45.09521484 C0.65429976 43.92101589 -0.52431862 42.76348221 -1.71606445 41.61987305 C-2.33422531 41.00545853 -2.95238617 40.39104401 -3.58927917 39.75801086 C-4.89810315 38.46262923 -6.21410184 37.17446275 -7.53662109 35.89306641 C-9.56726258 33.92479376 -11.57572022 31.93591253 -13.58129883 29.94213867 C-14.85414916 28.68762592 -16.12819804 27.43432781 -17.40356445 26.18237305 C-18.00884476 25.5855925 -18.61412506 24.98881195 -19.23774719 24.37394714 C-22.84051603 20.1525507 -22.84051603 20.1525507 -27.1965332 21.51831055 Z M62.2409668 91.2331543 C71.1509668 100.1431543 80.0609668 109.0531543 89.2409668 118.2331543 C92.53417949 114.63221821 92.53417949 114.63221821 92.3659668 110.9831543 C90.81386573 105.80948409 87.99546208 103.01456353 84.2409668 99.2331543 C83.37729492 98.34370117 82.51362305 97.45424805 81.6237793 96.5378418 C76.19373851 90.37605101 76.19373851 90.37605101 68.8034668 87.9831543 C64.95647188 87.86177693 64.95647188 87.86177693 62.2409668 91.2331543 Z " fill="#AEAEAE" transform="translate(330.759033203125,299.766845703125)"/>
</svg>
