<?xml version="1.0" standalone="no"?>
<!DOCTYPE svg PUBLIC "-//W3C//DTD SVG 20010904//EN"
 "http://www.w3.org/TR/2001/REC-SVG-20010904/DTD/svg10.dtd">
<svg version="1.0" xmlns="http://www.w3.org/2000/svg"
 width="512.000000pt" height="512.000000pt" viewBox="0 0 512.000000 512.000000"
 preserveAspectRatio="xMidYMid meet">

<g transform="translate(0.000000,512.000000) scale(0.100000,-0.100000)"
fill="#000000" stroke="none">
<path d="M1085 5106 c-22 -7 -54 -20 -71 -29 -35 -18 -106 -92 -127 -133 -36
-70 -49 -227 -24 -287 22 -50 42 -62 126 -67 l76 -5 0 -105 0 -105 -165 -5
c-136 -5 -175 -10 -225 -28 -121 -45 -230 -140 -290 -253 -65 -124 -65 -121
-65 -860 l0 -667 -47 -7 c-103 -15 -196 -84 -243 -180 l-25 -50 0 -850 c0
-792 1 -854 18 -915 74 -262 275 -463 537 -537 62 -17 158 -18 2000 -18 1842
0 1938 1 2000 18 263 74 463 274 537 537 17 61 18 123 18 915 l0 850 -34 63
c-38 69 -80 110 -151 144 -38 18 -67 22 -187 26 l-142 4 5 27 c2 14 40 298 84
631 44 333 87 650 96 704 9 54 14 117 11 138 -10 77 -87 119 -152 83 -40 -21
-53 -47 -65 -133 -5 -36 -17 -77 -28 -91 -38 -53 -136 -81 -287 -81 -153 0
-247 27 -289 84 -20 26 -21 45 -27 394 -6 394 -7 398 -63 513 -127 258 -461
363 -720 227 -82 -43 -185 -147 -225 -226 -66 -131 -78 -270 -27 -320 l26 -27
193 -3 c212 -4 242 3 267 56 l12 27 14 -27 c25 -47 60 -58 189 -58 l115 0 0
-250 c0 -274 -4 -301 -56 -337 -48 -33 -94 -44 -209 -50 -176 -9 -294 18 -337
78 -11 14 -23 55 -28 91 -12 86 -25 112 -65 133 -65 36 -142 -6 -152 -83 -3
-21 2 -84 11 -138 9 -54 52 -371 96 -704 44 -333 82 -617 85 -632 l5 -28 -205
0 -204 0 -3 688 c-3 678 -4 688 -26 753 -58 174 -202 309 -377 354 -40 10
-106 15 -202 15 l-143 0 0 110 0 110 76 0 c71 0 77 2 106 30 l30 31 -4 122
c-3 102 -7 129 -26 165 -35 66 -88 119 -150 149 l-57 28 -385 2 c-291 2 -395
-1 -425 -11z m770 -210 c30 -13 65 -58 65 -86 0 -7 -135 -10 -425 -10 -401 0
-425 1 -425 18 0 27 29 63 64 78 46 20 672 20 721 0z m1684 -17 c64 -28 104
-61 140 -115 44 -67 41 -74 -23 -74 -49 0 -57 3 -75 29 -26 37 -114 81 -159
81 -61 0 -115 -23 -160 -67 -39 -39 -47 -43 -92 -43 -28 0 -50 5 -50 10 0 22
40 86 72 116 99 91 230 115 347 63z m-1834 -399 l0 -105 -212 -3 -213 -2 0
110 0 110 213 -2 212 -3 0 -105z m567 -353 c62 -30 115 -83 150 -149 l23 -43
3 -687 3 -688 -106 0 -105 0 0 640 0 640 -105 0 -105 0 0 -640 0 -640 -110 0
-110 0 0 640 0 640 -105 0 -105 0 0 -640 0 -640 -105 0 -105 0 0 640 0 640
-110 0 -110 0 0 -640 0 -640 -105 0 -105 0 0 640 0 640 -105 0 -105 0 0 -640
0 -640 -110 0 -110 0 0 645 c0 650 3 712 37 779 21 41 92 115 127 133 80 42
83 42 816 40 l705 -2 57 -28z m1458 -1007 l0 -560 -55 0 c-53 0 -54 0 -59 33
-7 41 -86 973 -86 1009 0 24 5 28 38 33 28 5 139 35 160 44 1 1 2 -251 2 -559z
m383 515 c32 -5 37 -9 37 -33 0 -36 -79 -968 -86 -1009 -5 -33 -6 -33 -59 -33
l-55 0 0 559 0 559 63 -18 c34 -10 79 -21 100 -25z m-869 4 l65 -11 6 -51 c9
-78 85 -966 85 -993 0 -22 -4 -24 -55 -24 -38 0 -55 4 -55 13 0 7 -31 249 -70
537 -38 288 -70 531 -70 538 0 9 6 12 15 8 8 -3 44 -10 79 -17z m1286 8 c0 -7
-31 -249 -70 -537 -38 -288 -70 -530 -70 -537 0 -9 -17 -13 -55 -13 -50 0 -55
2 -55 23 0 26 77 919 85 993 l6 52 72 14 c40 9 75 16 80 17 4 0 7 -5 7 -12z
m324 -1316 c59 -32 57 -6 54 -878 -3 -794 -3 -798 -26 -863 -60 -177 -189
-302 -367 -357 -57 -17 -144 -18 -1955 -18 l-1895 0 -70 22 c-129 41 -255 142
-314 252 -69 131 -65 81 -69 964 -3 877 -5 849 57 879 42 20 4547 19 4585 -1z"/>
<path d="M430 1440 l0 -690 105 0 105 0 0 690 0 690 -105 0 -105 0 0 -690z"/>
<path d="M4480 1440 l0 -690 105 0 105 0 0 690 0 690 -105 0 -105 0 0 -690z"/>
<path d="M2420 1902 c-77 -26 -97 -38 -158 -96 -63 -59 -106 -137 -121 -221
-6 -32 -11 -60 -11 -62 0 -2 49 -3 109 -3 l108 0 7 40 c9 55 75 124 136 140
56 15 141 7 182 -17 58 -34 91 -87 96 -153 4 -55 2 -61 -25 -89 -33 -33 -87
-51 -151 -51 -24 0 -59 -7 -77 -16 -56 -26 -65 -60 -65 -248 l0 -166 110 0
110 0 0 110 c0 84 3 110 13 110 7 0 36 7 63 15 114 34 199 124 230 245 32 128
-15 271 -125 372 -82 76 -146 100 -276 105 -77 2 -113 -1 -155 -15z"/>
<path d="M2450 745 l0 -105 110 0 110 0 0 105 0 105 -110 0 -110 0 0 -105z"/>
</g>
</svg>
