<?xml version="1.0" standalone="no"?>
<!DOCTYPE svg PUBLIC "-//W3C//DTD SVG 20010904//EN"
 "http://www.w3.org/TR/2001/REC-SVG-20010904/DTD/svg10.dtd">
<svg version="1.0" xmlns="http://www.w3.org/2000/svg"
 width="512.000000pt" height="512.000000pt" viewBox="0 0 512.000000 512.000000"
 preserveAspectRatio="xMidYMid meet">

<g transform="translate(0.000000,512.000000) scale(0.100000,-0.100000)"
fill="#000000" stroke="none">
<path d="M25 5015 l-25 -24 0 -2231 0 -2231 25 -24 c24 -25 27 -25 200 -25
l175 0 0 -175 c0 -173 0 -176 25 -200 l24 -25 306 0 c174 0 314 4 324 9 10 6
69 96 132 200 l114 191 1235 0 1235 0 114 -191 c63 -104 122 -194 132 -200 10
-5 150 -9 324 -9 l306 0 24 25 c25 24 25 27 25 200 l0 175 175 0 c173 0 176 0
200 25 l25 24 0 2231 0 2231 -25 24 -24 25 -2511 0 -2511 0 -24 -25z m4935
-2255 l0 -2120 -2400 0 -2400 0 0 2120 0 2120 2400 0 2400 0 0 -2120z m-3989
-2280 l168 0 -72 -120 -72 -120 -216 0 -216 0 -6 90 c-8 100 1 137 35 145 47
10 95 13 152 9 32 -2 135 -4 227 -4z m3589 -120 l0 -120 -218 0 -217 0 -72
120 -72 120 289 0 290 0 0 -120z"/>
<path d="M425 4615 l-25 -24 0 -831 0 -831 25 -24 24 -25 591 0 591 0 24 25
25 24 0 831 0 831 -25 24 -24 25 -591 0 -591 0 -24 -25z m1095 -855 l0 -720
-480 0 -480 0 0 720 0 720 480 0 480 0 0 -720z"/>
<path d="M665 4375 c-16 -15 -25 -36 -25 -55 0 -19 9 -40 25 -55 l24 -25 351
0 351 0 24 25 c16 15 25 36 25 55 0 19 -9 40 -25 55 l-24 25 -351 0 -351 0
-24 -25z"/>
<path d="M665 4135 c-16 -15 -25 -36 -25 -55 0 -19 9 -40 25 -55 l24 -25 351
0 351 0 24 25 c16 15 25 36 25 55 0 19 -9 40 -25 55 l-24 25 -351 0 -351 0
-24 -25z"/>
<path d="M1305 3735 c-22 -21 -25 -33 -25 -95 0 -62 3 -74 25 -95 15 -16 36
-25 55 -25 19 0 40 9 55 25 22 21 25 33 25 95 0 62 -3 74 -25 95 -15 16 -36
25 -55 25 -19 0 -40 -9 -55 -25z"/>
<path d="M1945 4615 l-25 -24 0 -831 0 -831 25 -24 24 -25 591 0 591 0 24 25
25 24 0 831 0 831 -25 24 -24 25 -591 0 -591 0 -24 -25z m1095 -855 l0 -720
-480 0 -480 0 0 720 0 720 480 0 480 0 0 -720z"/>
<path d="M2185 4375 c-16 -15 -25 -36 -25 -55 0 -19 9 -40 25 -55 l24 -25 351
0 351 0 24 25 c16 15 25 36 25 55 0 19 -9 40 -25 55 l-24 25 -351 0 -351 0
-24 -25z"/>
<path d="M2185 4135 c-16 -15 -25 -36 -25 -55 0 -19 9 -40 25 -55 l24 -25 351
0 351 0 24 25 c16 15 25 36 25 55 0 19 -9 40 -25 55 l-24 25 -351 0 -351 0
-24 -25z"/>
<path d="M2825 3735 c-22 -21 -25 -33 -25 -95 0 -62 3 -74 25 -95 15 -16 36
-25 55 -25 19 0 40 9 55 25 22 21 25 33 25 95 0 62 -3 74 -25 95 -15 16 -36
25 -55 25 -19 0 -40 -9 -55 -25z"/>
<path d="M3465 4615 l-25 -24 0 -831 0 -831 25 -24 24 -25 591 0 591 0 24 25
25 24 0 831 0 831 -25 24 -24 25 -591 0 -591 0 -24 -25z m1095 -855 l0 -720
-480 0 -480 0 0 720 0 720 480 0 480 0 0 -720z"/>
<path d="M3705 4375 c-16 -15 -25 -36 -25 -55 0 -19 9 -40 25 -55 l24 -25 351
0 351 0 24 25 c16 15 25 36 25 55 0 19 -9 40 -25 55 l-24 25 -351 0 -351 0
-24 -25z"/>
<path d="M3705 4135 c-16 -15 -25 -36 -25 -55 0 -19 9 -40 25 -55 l24 -25 351
0 351 0 24 25 c16 15 25 36 25 55 0 19 -9 40 -25 55 l-24 25 -351 0 -351 0
-24 -25z"/>
<path d="M4345 3735 c-22 -21 -25 -33 -25 -95 0 -62 3 -74 25 -95 15 -16 36
-25 55 -25 19 0 40 9 55 25 22 21 25 33 25 95 0 62 -3 74 -25 95 -15 16 -36
25 -55 25 -19 0 -40 -9 -55 -25z"/>
<path d="M425 2615 l-25 -24 0 -831 0 -831 25 -24 24 -25 591 0 591 0 24 25
25 24 0 831 0 831 -25 24 -24 25 -591 0 -591 0 -24 -25z m1095 -855 l0 -720
-480 0 -480 0 0 720 0 720 480 0 480 0 0 -720z"/>
<path d="M665 2375 c-16 -15 -25 -36 -25 -55 0 -19 9 -40 25 -55 l24 -25 351
0 351 0 24 25 c16 15 25 36 25 55 0 19 -9 40 -25 55 l-24 25 -351 0 -351 0
-24 -25z"/>
<path d="M665 2135 c-16 -15 -25 -36 -25 -55 0 -19 9 -40 25 -55 l24 -25 351
0 351 0 24 25 c16 15 25 36 25 55 0 19 -9 40 -25 55 l-24 25 -351 0 -351 0
-24 -25z"/>
<path d="M1305 1735 c-22 -21 -25 -33 -25 -95 0 -62 3 -74 25 -95 15 -16 36
-25 55 -25 19 0 40 9 55 25 22 21 25 33 25 95 0 62 -3 74 -25 95 -15 16 -36
25 -55 25 -19 0 -40 -9 -55 -25z"/>
<path d="M1945 2615 l-25 -24 0 -831 0 -831 25 -24 24 -25 591 0 591 0 24 25
25 24 0 831 0 831 -25 24 -24 25 -591 0 -591 0 -24 -25z m1095 -855 l0 -720
-480 0 -480 0 0 720 0 720 480 0 480 0 0 -720z"/>
<path d="M2185 2375 c-16 -15 -25 -36 -25 -55 0 -19 9 -40 25 -55 l24 -25 351
0 351 0 24 25 c16 15 25 36 25 55 0 19 -9 40 -25 55 l-24 25 -351 0 -351 0
-24 -25z"/>
<path d="M2185 2135 c-16 -15 -25 -36 -25 -55 0 -19 9 -40 25 -55 l24 -25 351
0 351 0 24 25 c16 15 25 36 25 55 0 19 -9 40 -25 55 l-24 25 -351 0 -351 0
-24 -25z"/>
<path d="M2825 1735 c-22 -21 -25 -33 -25 -95 0 -62 3 -74 25 -95 15 -16 36
-25 55 -25 19 0 40 9 55 25 22 21 25 33 25 95 0 62 -3 74 -25 95 -15 16 -36
25 -55 25 -19 0 -40 -9 -55 -25z"/>
<path d="M3465 2615 l-25 -24 0 -831 0 -831 25 -24 24 -25 591 0 591 0 24 25
25 24 0 831 0 831 -25 24 -24 25 -591 0 -591 0 -24 -25z m1095 -855 l0 -720
-480 0 -480 0 0 720 0 720 480 0 480 0 0 -720z"/>
<path d="M3705 2375 c-16 -15 -25 -36 -25 -55 0 -19 9 -40 25 -55 l24 -25 351
0 351 0 24 25 c16 15 25 36 25 55 0 19 -9 40 -25 55 l-24 25 -351 0 -351 0
-24 -25z"/>
<path d="M3705 2135 c-16 -15 -25 -36 -25 -55 0 -19 9 -40 25 -55 l24 -25 351
0 351 0 24 25 c16 15 25 36 25 55 0 19 -9 40 -25 55 l-24 25 -351 0 -351 0
-24 -25z"/>
<path d="M4345 1735 c-22 -21 -25 -33 -25 -95 0 -62 3 -74 25 -95 15 -16 36
-25 55 -25 19 0 40 9 55 25 22 21 25 33 25 95 0 62 -3 74 -25 95 -15 16 -36
25 -55 25 -19 0 -40 -9 -55 -25z"/>
</g>
</svg>
