<?xml version="1.0" standalone="no"?>
<!DOCTYPE svg PUBLIC "-//W3C//DTD SVG 20010904//EN"
 "http://www.w3.org/TR/2001/REC-SVG-20010904/DTD/svg10.dtd">
<svg version="1.0" xmlns="http://www.w3.org/2000/svg"
 width="512.000000pt" height="512.000000pt" viewBox="0 0 512.000000 512.000000"
 preserveAspectRatio="xMidYMid meet">

<g transform="translate(0.000000,512.000000) scale(0.100000,-0.100000)"
fill="#000000" stroke="none">
<path d="M2369 5105 c-147 -29 -277 -103 -386 -218 -79 -85 -125 -158 -158
-254 -81 -233 -45 -476 99 -677 24 -34 147 -163 273 -288 200 -199 233 -228
260 -228 43 0 76 30 76 69 0 28 -27 59 -235 269 -129 130 -252 263 -271 294
-149 233 -117 529 78 723 181 182 440 224 674 109 93 -46 192 -142 240 -234
42 -81 68 -110 98 -110 42 0 62 19 99 93 25 49 60 95 109 144 288 288 765 200
935 -172 72 -157 68 -338 -12 -505 -29 -59 -84 -118 -577 -612 l-545 -548
-195 194 c-108 106 -205 195 -217 198 -55 14 -105 -38 -91 -95 4 -12 111 -127
240 -255 177 -175 240 -232 258 -232 19 0 158 134 620 598 575 576 597 600
638 679 133 261 102 576 -78 799 -102 127 -267 227 -431 260 -253 51 -542 -51
-698 -247 l-47 -58 -63 70 c-183 199 -436 285 -693 234z"/>
<path d="M2955 4490 c-40 -15 -44 -33 -47 -171 l-3 -134 -136 -3 c-185 -4
-174 10 -174 -229 l0 -185 28 -24 c27 -23 35 -24 158 -24 l129 0 0 -133 c0
-185 -11 -177 229 -177 180 0 182 0 206 25 24 23 25 29 25 155 l0 130 130 0
c126 0 132 1 155 25 25 24 25 26 25 208 0 239 9 227 -175 227 l-135 0 0 125
c0 134 -8 166 -47 184 -28 13 -337 14 -368 1z m265 -282 c7 -180 -1 -172 175
-176 l135 -4 0 -79 0 -79 -132 0 c-181 0 -178 3 -178 -177 l0 -133 -79 0 -79
0 -4 136 c-4 178 0 174 -179 174 l-129 0 0 79 0 79 131 4 c129 3 131 3 155 31
23 27 24 35 24 158 l0 130 78 -3 77 -3 5 -137z"/>
<path d="M4582 2769 c-51 -10 -36 -1 -601 -328 -239 -138 -438 -251 -441 -251
-4 0 -15 18 -25 40 -10 22 -37 58 -61 80 -78 72 -86 73 -399 79 -234 5 -285 9
-310 22 -53 29 -267 97 -360 115 -128 23 -299 15 -420 -20 -229 -69 -441 -230
-614 -468 -35 -49 -66 -88 -70 -88 -4 0 -42 36 -86 80 -108 108 -113 108 -230
-10 l-89 -89 -52 49 c-44 42 -59 50 -91 50 -36 0 -49 -11 -280 -243 -221 -221
-243 -246 -243 -277 0 -30 17 -51 163 -197 175 -176 188 -184 241 -142 19 15
26 29 26 56 0 33 -12 48 -122 160 l-122 123 169 170 170 170 663 -663 662
-662 -170 -170 -170 -170 -437 437 c-300 299 -447 439 -466 444 -43 10 -81
-22 -85 -71 -3 -38 -3 -39 475 -517 414 -414 482 -478 508 -478 25 0 66 36
277 247 300 300 289 271 161 404 l-87 90 87 87 c120 121 120 121 11 232 l-88
90 228 0 227 0 24 25 c32 31 33 74 2 103 -23 22 -29 22 -328 22 l-304 0 -265
265 -265 265 19 32 c39 69 132 186 205 259 169 167 352 255 557 266 147 8 298
-25 511 -113 l82 -34 248 0 c136 0 263 -4 282 -10 76 -21 114 -97 86 -167 -28
-70 -5 -67 -558 -73 l-499 -5 -24 -28 c-29 -34 -30 -56 -3 -91 l21 -27 517 3
518 3 48 30 c27 17 67 54 90 83 37 48 73 71 475 303 630 364 621 359 664 359
85 0 144 -112 98 -185 -26 -41 -1305 -1042 -1384 -1083 -86 -44 -140 -52 -358
-52 -182 0 -187 -1 -208 -23 -29 -31 -28 -72 4 -104 l25 -25 227 4 c246 5 296
14 400 75 86 50 1352 1043 1402 1101 49 55 75 134 67 203 -19 155 -173 268
-325 238z m-2570 -1871 l-52 -53 -490 490 -490 490 52 52 53 53 490 -490 490
-490 -53 -52z"/>
</g>
</svg>
