<?xml version="1.0" standalone="no"?>
<!DOCTYPE svg PUBLIC "-//W3C//DTD SVG 20010904//EN"
 "http://www.w3.org/TR/2001/REC-SVG-20010904/DTD/svg10.dtd">
<svg version="1.0" xmlns="http://www.w3.org/2000/svg"
 width="512.000000pt" height="512.000000pt" viewBox="0 0 512.000000 512.000000"
 preserveAspectRatio="xMidYMid meet">

<g transform="translate(0.000000,512.000000) scale(0.100000,-0.100000)"
fill="#000000" stroke="none">
<path d="M1262 4452 c-15 -15 -34 -42 -44 -59 -40 -77 -166 -128 -256 -104
-135 36 -148 28 -222 -134 -59 -131 -61 -170 -13 -202 45 -31 83 -71 83 -87 0
-13 -14 -16 -84 -16 -76 0 -86 -2 -109 -25 -18 -19 -27 -41 -32 -83 -16 -126
-101 -216 -219 -229 -111 -13 -126 -36 -126 -205 0 -139 15 -182 67 -193 76
-16 104 -28 127 -56 34 -40 41 -72 27 -119 -15 -52 -58 -86 -118 -94 -35 -4
-57 -14 -74 -32 -23 -25 -24 -31 -27 -214 l-3 -188 28 -31 c20 -22 42 -34 77
-40 61 -11 97 -38 115 -84 28 -74 -20 -160 -97 -172 -109 -18 -122 -40 -122
-207 0 -105 3 -128 20 -155 20 -33 29 -37 108 -48 117 -16 199 -102 217 -230
4 -27 12 -58 17 -68 24 -47 29 -47 853 -47 l775 0 772 -345 c558 -250 782
-345 808 -345 40 0 58 15 105 87 34 53 92 91 160 106 44 9 64 8 114 -6 117
-33 132 -23 201 130 66 149 66 162 -11 233 -51 47 -61 63 -66 98 l-6 42 67 0
c73 0 129 18 144 47 5 10 13 41 17 68 18 128 100 214 217 230 79 11 88 15 108
48 17 27 20 50 20 155 0 167 -13 189 -122 207 -77 12 -125 98 -97 172 18 46
54 73 115 84 35 6 57 18 77 40 l28 31 -3 188 c-3 183 -4 189 -27 214 -17 18
-39 28 -74 32 -60 8 -103 42 -118 94 -14 47 -7 79 27 119 23 28 51 40 127 56
52 11 67 54 67 193 0 169 -15 192 -126 205 -118 13 -205 106 -220 231 -5 41
-14 63 -32 81 l-25 25 -853 0 -853 0 -658 294 c-362 162 -678 304 -703 315
-65 30 -115 28 -148 -7z m553 -387 c240 -107 444 -199 453 -204 11 -7 -192
-10 -615 -11 l-632 0 -12 43 c-15 58 -36 96 -71 134 -23 24 -28 35 -20 49 8
14 22 17 83 15 123 -3 242 44 324 128 21 23 42 41 47 41 4 0 203 -88 443 -195z
m1220 -442 c40 -74 132 -74 168 0 l19 37 564 0 c529 0 565 -1 570 -17 47 -150
137 -242 307 -311 40 -17 33 -39 -20 -64 -61 -29 -122 -90 -154 -153 -20 -42
-24 -65 -24 -140 0 -78 4 -97 27 -140 30 -58 97 -124 157 -154 l41 -21 0 -68
0 -69 -51 -23 c-57 -27 -117 -88 -150 -152 -33 -64 -38 -176 -10 -249 28 -74
88 -141 156 -175 38 -18 55 -32 55 -45 0 -11 -6 -19 -13 -19 -7 0 -45 -16 -85
-35 -113 -54 -192 -148 -236 -277 -5 -17 -41 -18 -571 -18 l-565 0 -14 34
c-17 40 -42 56 -86 56 -44 0 -69 -16 -86 -56 l-14 -34 -1125 0 c-1063 0 -1126
1 -1131 17 -46 143 -149 252 -282 299 -68 25 -68 44 2 78 63 31 119 89 150
155 31 68 30 209 -2 269 -35 65 -98 128 -153 153 l-49 23 0 68 0 68 41 21 c60
30 127 96 157 154 23 43 27 62 27 140 0 75 -4 98 -24 140 -32 63 -93 124 -153
153 -54 25 -61 47 -20 64 169 69 259 161 306 311 5 16 68 17 1128 17 l1123 0
20 -37z m1087 -2356 c6 -66 30 -124 73 -175 16 -19 24 -39 21 -49 -5 -16 -16
-18 -81 -15 -125 6 -230 -35 -327 -126 l-48 -45 -497 223 c-274 122 -509 229
-523 236 -21 11 86 13 676 14 l701 0 5 -63z"/>
<path d="M3058 3451 l-33 -29 0 -132 0 -132 33 -29 c20 -18 43 -29 62 -29 19
0 42 11 62 29 l33 29 0 132 0 132 -33 29 c-20 18 -43 29 -62 29 -19 0 -42 -11
-62 -29z"/>
<path d="M956 3359 c-45 -53 -30 -123 31 -148 21 -8 251 -11 870 -9 l841 3 26
24 c14 13 28 36 31 52 7 32 -16 83 -44 99 -13 7 -307 10 -874 10 l-855 0 -26
-31z"/>
<path d="M3527 3379 c-27 -16 -49 -67 -42 -98 3 -16 17 -39 31 -52 26 -24 26
-24 307 -27 295 -3 323 0 352 42 23 32 18 80 -11 115 l-26 31 -296 0 c-183 0
-304 -5 -315 -11z"/>
<path d="M1732 3000 c-55 -20 -99 -47 -144 -88 l-26 -24 -59 28 c-51 26 -69
29 -153 29 -87 0 -101 -3 -162 -33 -77 -38 -130 -92 -167 -171 -22 -48 -26
-70 -26 -146 0 -82 3 -97 33 -157 36 -74 96 -133 170 -170 40 -20 63 -23 152
-23 96 0 110 3 158 28 l53 28 41 -37 c145 -131 391 -131 544 0 l41 35 54 -27
c48 -24 65 -27 159 -27 95 0 110 3 158 28 224 118 265 409 83 580 -78 73 -127
92 -241 92 -83 0 -103 -4 -153 -27 l-58 -27 -47 36 c-87 67 -145 87 -257 90
-79 2 -111 -1 -153 -17z m249 -198 c170 -88 169 -329 0 -414 -163 -83 -341 26
-341 207 0 76 25 131 78 176 79 66 174 78 263 31z m-564 -62 c41 -18 42 -20
35 -52 -8 -37 -9 -136 -2 -188 5 -32 2 -37 -30 -52 -80 -40 -177 -8 -217 72
-13 24 -23 58 -23 76 0 51 40 115 90 141 52 28 91 29 147 3z m1078 -14 c46
-36 65 -74 65 -134 0 -54 -25 -100 -71 -135 -38 -27 -111 -34 -157 -13 l-37
17 1 132 1 132 34 18 c48 25 118 18 164 -17z"/>
<path d="M3067 2999 c-35 -20 -47 -64 -47 -169 0 -145 23 -190 100 -190 76 0
100 45 100 185 0 104 -15 156 -48 174 -26 14 -81 14 -105 0z"/>
<path d="M3552 2919 c-70 -21 -89 -106 -37 -159 l25 -25 278 -3 c152 -2 287 0
300 3 13 3 35 18 48 32 34 37 32 84 -5 125 l-29 33 -274 2 c-155 1 -287 -2
-306 -8z"/>
<path d="M3068 2534 c-39 -21 -51 -71 -46 -197 3 -101 4 -108 31 -134 38 -38
96 -38 134 0 27 26 28 33 31 141 3 90 1 121 -12 148 -26 55 -83 72 -138 42z"/>
<path d="M3540 2443 c-65 -33 -76 -105 -24 -154 26 -24 26 -24 307 -27 305 -3
327 0 352 49 18 33 19 60 4 92 -23 50 -35 52 -329 55 -247 2 -279 1 -310 -15z"/>
<path d="M3085 2081 c-49 -21 -60 -47 -63 -159 -5 -128 7 -176 48 -197 56 -29
110 -12 135 42 13 27 16 59 13 149 -3 106 -5 115 -28 139 -28 27 -74 39 -105
26z"/>
<path d="M984 1974 c-77 -38 -68 -150 14 -174 26 -8 291 -10 869 -8 l831 3 26
24 c52 49 41 121 -24 153 -32 17 -94 18 -860 18 -722 0 -829 -2 -856 -16z"/>
<path d="M3554 1983 c-67 -13 -92 -110 -41 -160 l27 -28 273 -3 c178 -2 285 1
309 8 85 25 90 150 7 179 -30 10 -524 14 -575 4z"/>
</g>
</svg>
