<?xml version="1.0" standalone="no"?>
<!DOCTYPE svg PUBLIC "-//W3C//DTD SVG 20010904//EN"
 "http://www.w3.org/TR/2001/REC-SVG-20010904/DTD/svg10.dtd">
<svg version="1.0" xmlns="http://www.w3.org/2000/svg"
 width="512.000000pt" height="512.000000pt" viewBox="0 0 512.000000 512.000000"
 preserveAspectRatio="xMidYMid meet">

<g transform="translate(0.000000,512.000000) scale(0.100000,-0.100000)"
fill="#000000" stroke="none">
<path d="M2520 2560 l0 -2560 85 0 85 0 0 2560 0 2560 -85 0 -85 0 0 -2560z"/>
<path d="M1010 4671 c-221 -71 -369 -267 -370 -488 -1 -231 181 -455 408 -502
230 -48 461 69 564 286 38 78 42 92 46 188 4 85 1 115 -16 172 -51 165 -195
306 -359 348 -77 20 -204 18 -273 -4z m285 -181 c64 -31 134 -101 165 -165 21
-42 25 -65 25 -140 0 -76 -4 -99 -26 -146 -103 -219 -390 -264 -556 -88 -105
112 -120 289 -34 414 46 67 87 101 159 132 76 32 193 29 267 -7z"/>
<path d="M3900 4667 c-163 -55 -275 -166 -331 -327 -112 -320 144 -670 489
-670 216 0 423 158 486 371 24 77 22 208 -3 290 -51 164 -193 301 -356 344
-87 22 -206 19 -285 -8z m305 -182 c72 -37 138 -109 165 -183 30 -78 25 -195
-10 -267 -32 -67 -99 -131 -168 -163 -83 -38 -193 -38 -277 1 -273 127 -266
506 11 623 83 35 196 30 279 -11z"/>
<path d="M768 3485 c-19 -11 -32 -32 -47 -77 -60 -184 -501 -1670 -503 -1695
-2 -37 17 -72 48 -83 14 -6 104 -10 200 -10 l174 0 0 -560 c0 -592 1 -607 45
-624 9 -3 221 -6 471 -6 l455 0 24 25 25 24 0 570 0 570 191 3 191 3 24 28
c13 15 24 38 24 49 0 12 -117 411 -260 887 -221 736 -264 869 -286 889 -25 22
-26 22 -387 22 -296 -1 -367 -3 -389 -15z m686 -237 c14 -46 115 -384 226
-753 110 -368 203 -678 206 -687 5 -17 -7 -18 -165 -18 -165 0 -171 -1 -198
-24 l-28 -24 -3 -571 -3 -571 -124 0 -125 0 0 595 0 595 -85 0 -85 0 0 -595 0
-595 -130 0 -130 0 0 569 0 568 -26 27 -27 26 -170 0 -169 0 4 23 c2 12 105
358 229 770 l224 747 277 0 277 0 25 -82z"/>
<path d="M3670 3485 c-222 -49 -408 -238 -455 -460 -12 -57 -15 -186 -15 -707
l0 -637 24 -28 c24 -28 24 -28 170 -31 l146 -3 0 -560 c0 -575 1 -587 39 -616
12 -9 130 -12 477 -13 l461 0 24 26 24 26 3 569 3 569 130 0 c153 0 182 10
199 68 8 26 10 227 8 677 -4 711 -1 676 -74 816 -70 133 -180 228 -329 283
l-80 30 -345 3 c-271 2 -359 -1 -410 -12z m704 -165 c135 -22 262 -115 317
-235 46 -96 50 -169 47 -755 l-3 -535 -82 -3 -83 -3 -2 513 -3 513 -85 0 -85
0 -3 -1107 -2 -1108 -125 0 -125 0 0 595 0 595 -85 0 -85 0 0 -595 0 -595
-130 0 -130 0 0 1110 0 1110 -85 0 -85 0 0 -515 0 -515 -85 0 -85 0 0 563 c0
317 4 588 10 621 30 182 175 319 370 349 55 9 569 6 624 -3z"/>
</g>
</svg>
