<?xml version="1.0" standalone="no"?>
<!DOCTYPE svg PUBLIC "-//W3C//DTD SVG 20010904//EN"
 "http://www.w3.org/TR/2001/REC-SVG-20010904/DTD/svg10.dtd">
<svg version="1.0" xmlns="http://www.w3.org/2000/svg"
 width="512.000000pt" height="512.000000pt" viewBox="0 0 512.000000 512.000000"
 preserveAspectRatio="xMidYMid meet">

<g transform="translate(0.000000,512.000000) scale(0.100000,-0.100000)"
fill="#000000" stroke="none">
<path d="M974 5020 c-146 -27 -300 -108 -408 -216 -86 -86 -146 -185 -189
-308 -29 -85 -31 -100 -31 -231 0 -132 2 -145 33 -235 82 -239 253 -409 495
-493 85 -29 100 -31 231 -31 130 0 147 3 235 32 234 78 410 254 491 492 31 90
33 103 33 235 0 132 -2 145 -33 235 -81 238 -255 412 -490 490 -78 26 -114 32
-205 35 -61 2 -134 0 -162 -5z m261 -145 c110 -23 227 -87 311 -172 244 -243
243 -633 -1 -878 -245 -244 -635 -245 -878 -1 -246 246 -247 636 -2 881 151
150 362 213 570 170z"/>
<path d="M993 4785 c-204 -44 -365 -207 -408 -412 -18 -86 -18 -130 0 -218 43
-204 206 -367 410 -410 39 -8 88 -15 110 -15 132 0 277 62 375 160 98 98 160
243 160 375 0 132 -62 277 -160 375 -131 131 -309 184 -487 145z m189 -136
c124 -26 225 -107 281 -227 28 -60 31 -77 31 -158 1 -85 -2 -96 -37 -166 -44
-91 -103 -148 -195 -191 -60 -28 -77 -31 -157 -31 -80 0 -97 3 -157 31 -124
58 -203 159 -229 292 -30 156 52 330 193 406 92 50 176 64 270 44z"/>
<path d="M1075 4598 c-33 -18 -35 -28 -35 -153 0 -78 -5 -125 -13 -136 -7 -8
-34 -28 -62 -44 -75 -42 -95 -64 -95 -100 0 -38 26 -65 64 -65 15 0 58 18 95
40 37 22 78 40 91 40 13 0 34 10 46 21 23 21 23 25 18 173 -7 173 -14 208 -50
225 -30 13 -34 13 -59 -1z"/>
<path d="M2938 5014 c-391 -94 -523 -584 -234 -862 104 -100 211 -142 360
-142 238 1 436 160 492 396 85 362 -255 697 -618 608z m273 -161 c82 -38 144
-101 183 -183 27 -57 31 -76 30 -150 0 -148 -67 -261 -196 -331 -60 -33 -67
-34 -168 -34 -95 0 -111 3 -162 28 -223 110 -280 395 -116 582 107 122 281
158 429 88z"/>
<path d="M2498 3911 c-74 -24 -148 -72 -197 -128 -42 -47 -413 -668 -432 -722
-7 -19 -9 -62 -7 -102 9 -120 89 -214 203 -240 46 -10 70 -10 148 4 50 10 102
20 115 23 20 6 22 3 22 -33 0 -34 -4 -41 -36 -58 -101 -54 -174 -196 -159
-310 8 -70 57 -167 101 -203 20 -16 137 -88 262 -161 125 -72 234 -135 242
-141 10 -6 -97 -10 -322 -10 l-338 0 0 271 c0 294 -4 325 -51 383 -58 69 -88
76 -330 76 -186 0 -219 -3 -255 -19 -57 -26 -110 -92 -123 -153 -14 -65 -14
-910 -1 -998 6 -36 22 -88 36 -117 33 -69 127 -155 201 -185 l58 -23 747 -3
747 -3 3 -372 c3 -366 3 -373 26 -415 35 -66 88 -119 150 -149 48 -24 69 -28
137 -28 104 1 167 27 234 101 84 91 85 97 89 506 l3 357 357 3 357 3 65 31
c95 46 143 93 187 182 l38 76 3 515 3 516 -28 55 c-18 36 -43 65 -71 85 l-44
30 -221 3 c-250 4 -277 -2 -341 -65 -60 -60 -66 -99 -66 -400 l0 -263 -47 0
c-46 0 -49 2 -67 40 -19 41 -96 120 -116 120 -7 0 -10 128 -10 380 l0 380 23
-5 c174 -40 216 -42 291 -15 124 47 197 189 163 315 -8 30 -91 182 -206 375
-217 366 -250 408 -370 468 l-75 37 -520 2 c-483 2 -525 1 -578 -16z m1114
-149 c26 -13 64 -40 85 -61 36 -37 377 -601 409 -678 20 -46 7 -97 -32 -136
-50 -50 -28 -53 -694 85 -83 17 -109 34 -131 84 -16 36 -18 50 -10 82 6 21 21
48 34 60 46 43 74 44 268 5 144 -29 184 -34 204 -25 44 20 46 104 2 122 -12 5
-70 19 -129 31 l-108 22 0 149 c0 145 -1 150 -25 173 -13 14 -28 25 -33 25 -4
0 -95 -17 -200 -39 l-192 -38 -192 39 c-106 21 -203 36 -216 33 -40 -10 -52
-59 -52 -209 l0 -134 -47 -10 c-27 -6 -77 -16 -113 -23 -70 -14 -110 -43 -110
-80 0 -28 37 -69 62 -69 11 0 98 16 194 36 l174 36 44 -22 c48 -23 76 -66 76
-117 0 -37 -32 -89 -67 -106 -15 -8 -179 -46 -364 -83 -334 -68 -337 -69 -373
-52 -20 10 -45 32 -56 50 -41 68 -36 82 167 426 103 174 204 335 223 356 19
22 62 52 95 68 l60 28 500 -2 c500 -3 500 -3 547 -26z m-737 -245 l110 -23 5
-68 c4 -61 8 -71 32 -89 22 -17 33 -19 55 -11 37 13 53 47 53 115 l0 55 93 18
c50 10 104 20 120 23 l27 6 0 -81 0 -80 -52 -12 c-58 -12 -121 -45 -155 -82
-52 -55 -81 -175 -60 -249 6 -23 3 -27 -18 -31 -14 -3 -35 -3 -48 -1 -22 4
-23 8 -23 91 1 102 -17 145 -84 206 -47 42 -85 60 -147 71 l-43 7 0 79 c0 57
4 79 13 79 6 -1 62 -11 122 -23z m107 -642 c66 -14 81 -14 146 0 70 14 75 14
113 -5 29 -15 351 -90 386 -90 2 0 3 -155 3 -345 0 -223 -4 -345 -10 -345 -5
0 -227 125 -492 279 -560 323 -537 310 -591 319 -41 7 -42 9 -45 50 -2 23 -1
42 2 42 2 0 80 16 171 35 133 27 220 54 241 74 1 0 35 -6 76 -14z m143 -666
c355 -204 603 -353 622 -374 104 -110 36 -282 -116 -293 -69 -5 -36 -21 -446
216 -176 102 -432 250 -570 329 -137 79 -262 157 -277 173 -26 28 -48 85 -48
125 1 30 34 97 63 123 36 34 95 53 142 46 28 -3 215 -106 630 -345z m-1190
186 l25 -24 0 -314 c0 -303 1 -315 21 -341 l20 -26 511 0 511 0 53 -31 54 -30
0 -215 0 -214 -718 0 c-777 0 -774 0 -844 54 -19 14 -48 50 -64 78 l-29 53 -3
465 c-2 256 0 480 3 498 3 18 15 42 26 53 17 17 34 19 214 19 195 0 196 0 220
-25z m2681 0 l25 -25 -3 -497 c-3 -488 -3 -499 -25 -538 -25 -47 -64 -85 -113
-111 -32 -17 -66 -19 -382 -22 l-348 -3 1 118 0 118 42 30 c49 36 103 120 115
179 l8 41 93 5 c77 4 95 8 107 24 11 16 14 78 14 328 0 253 3 314 15 338 8 15
20 30 27 33 7 3 100 6 206 6 193 1 193 1 218 -24z m-1257 -899 c126 -72 163
-88 216 -95 l50 -6 0 -515 0 -515 -23 -40 c-36 -63 -83 -90 -158 -90 -55 0
-67 4 -101 31 -76 61 -73 28 -73 687 0 323 3 587 7 587 3 0 40 -20 82 -44z"/>
</g>
</svg>
