<?xml version="1.0" standalone="no"?>
<!DOCTYPE svg PUBLIC "-//W3C//DTD SVG 20010904//EN"
 "http://www.w3.org/TR/2001/REC-SVG-20010904/DTD/svg10.dtd">
<svg version="1.0" xmlns="http://www.w3.org/2000/svg"
 width="512.000000pt" height="512.000000pt" viewBox="0 0 512.000000 512.000000"
 preserveAspectRatio="xMidYMid meet">

<g transform="translate(0.000000,512.000000) scale(0.100000,-0.100000)"
fill="#000000" stroke="none">
<path d="M2385 5114 c-232 -24 -369 -52 -560 -116 -261 -86 -499 -217 -720
-395 -223 -179 -281 -268 -273 -418 5 -95 36 -163 100 -226 79 -77 184 -108
293 -88 82 15 115 34 225 131 110 96 181 150 265 200 267 159 531 232 845 232
314 0 578 -73 845 -232 86 -51 156 -105 265 -200 108 -96 143 -116 226 -131
146 -27 291 46 360 181 39 76 45 190 14 271 -27 72 -111 164 -255 280 -326
263 -703 429 -1115 492 -101 15 -433 27 -515 19z m381 -205 c377 -37 745 -178
1044 -399 110 -82 238 -197 261 -234 24 -39 25 -108 2 -147 -18 -29 -84 -69
-116 -69 -36 0 -86 30 -153 90 -289 262 -613 415 -999 471 -116 17 -374 17
-490 0 -385 -56 -711 -209 -999 -471 -67 -60 -117 -90 -153 -90 -32 0 -98 40
-116 69 -23 39 -22 108 2 147 23 37 151 152 261 234 412 305 941 450 1456 399z"/>
<path d="M2413 4169 c-233 -23 -491 -125 -678 -268 -90 -69 -179 -161 -204
-209 -48 -94 -48 -220 -1 -312 27 -52 92 -115 152 -147 47 -25 64 -28 148 -28
114 0 152 15 255 104 127 110 236 160 398 183 56 8 98 8 155 0 161 -23 270
-73 397 -183 103 -89 141 -104 255 -104 84 0 101 3 148 28 60 32 125 94 152
147 30 59 43 148 31 212 -15 81 -45 134 -115 203 -218 214 -504 345 -817 374
-127 12 -144 12 -276 0z m267 -199 c125 -13 262 -51 368 -100 179 -84 364
-233 377 -303 10 -49 -9 -100 -51 -137 -28 -24 -44 -30 -80 -30 -55 0 -75 10
-136 66 -97 90 -241 167 -385 205 -61 17 -107 21 -213 21 -106 0 -152 -4 -213
-21 -144 -38 -288 -115 -385 -205 -61 -56 -81 -66 -136 -66 -81 0 -147 84
-131 167 13 70 198 219 377 303 135 63 313 104 473 108 22 1 83 -3 135 -8z"/>
<path d="M2473 3125 c-66 -18 -117 -50 -165 -103 -48 -53 -64 -85 -79 -160
-31 -149 49 -304 191 -371 79 -37 201 -37 280 0 142 67 222 222 191 371 -15
75 -31 107 -79 160 -49 54 -100 85 -169 103 -69 18 -102 18 -170 0z m166 -212
c33 -24 61 -79 61 -118 0 -40 -32 -90 -72 -115 -93 -56 -216 21 -205 129 11
107 132 165 216 104z"/>
<path d="M310 2104 c-149 -40 -271 -172 -300 -323 -6 -33 -10 -312 -10 -725 0
-727 1 -742 55 -839 34 -60 101 -128 162 -162 101 -56 44 -55 1754 -55 1098 0
1585 3 1607 11 53 18 79 88 52 140 -28 51 55 49 -1652 49 -1085 0 -1595 3
-1621 11 -49 13 -115 73 -138 124 -17 37 -19 84 -19 725 0 643 2 687 19 725
23 51 65 93 116 116 35 16 68 19 271 19 138 0 243 4 262 11 38 13 62 48 62 89
0 42 -15 67 -50 85 -41 21 -489 21 -570 -1z"/>
<path d="M1188 2104 c-34 -18 -48 -43 -48 -84 0 -44 26 -78 69 -91 101 -30
170 98 89 166 -33 28 -70 31 -110 9z"/>
<path d="M1588 2104 c-71 -38 -62 -147 14 -173 22 -8 504 -11 1587 -11 1488 0
1558 -1 1596 -19 22 -10 53 -31 69 -47 16 -16 37 -47 47 -69 17 -38 19 -82 19
-725 0 -641 -2 -688 -19 -725 -23 -51 -89 -111 -138 -124 -21 -6 -130 -11
-245 -11 l-208 0 -31 -28 c-23 -21 -31 -37 -32 -64 -1 -42 24 -85 59 -98 40
-16 408 -12 484 4 157 34 279 155 316 314 12 53 14 176 12 765 -3 781 1 730
-74 843 -43 64 -120 126 -196 157 l-53 22 -1590 2 c-1391 2 -1593 1 -1617 -13z"/>
<path d="M891 1546 c-28 -16 -50 -52 -51 -83 0 -13 75 -210 166 -438 177 -443
189 -465 254 -465 62 0 81 31 202 335 62 157 115 285 118 285 3 0 56 -128 118
-285 121 -304 140 -335 202 -335 65 0 77 23 249 453 88 221 163 414 166 429 9
35 -19 92 -51 107 -33 15 -59 14 -93 -4 -32 -16 -37 -28 -182 -392 -46 -117
-86 -213 -89 -213 -3 0 -56 129 -119 287 -63 157 -122 294 -132 304 -36 36
-102 36 -138 0 -10 -10 -69 -147 -132 -304 -63 -158 -116 -287 -119 -287 -3 0
-47 107 -99 238 -123 310 -144 356 -176 370 -33 15 -64 15 -94 -2z"/>
<path d="M2693 1548 c-52 -25 -54 -43 -51 -502 l3 -426 27 -27 c41 -41 100
-39 139 5 l29 32 0 425 c0 307 -3 431 -12 450 -21 47 -85 67 -135 43z"/>
<path d="M3213 1548 c-52 -25 -54 -43 -51 -502 l3 -426 27 -27 c41 -41 100
-39 139 5 l29 32 0 164 0 165 171 3 171 3 29 33 c32 36 36 69 15 111 -23 44
-52 51 -226 51 l-160 0 0 99 0 100 171 3 171 3 29 33 c44 49 34 119 -22 148
-35 17 -460 19 -496 2z"/>
<path d="M4133 1548 c-52 -25 -54 -43 -51 -502 l3 -426 27 -27 c41 -41 100
-39 139 5 l29 32 0 425 c0 307 -3 431 -12 450 -21 47 -85 67 -135 43z"/>
<path d="M3882 175 c-54 -45 -45 -128 19 -160 63 -33 139 14 139 85 0 42 -15
67 -50 85 -42 22 -74 19 -108 -10z"/>
</g>
</svg>
